# xmcd CD database file
#
# Track frame offsets:
#	150
#	21652
#	46759
#	94701
#	118677
#	150998
#	177994
#	217066
#
# Disc length: 3380 seconds
#
# Revision: 0
# Processed by: cddbd v1.5.2PL0 Copyright (c) Steve Scherf et al.
# Submitted via: CDex 1.70beta2
#
DISCID=660d3208
DTITLE=Bugge Wesseltoft - New Conceptions of Jazz - box cd1
DYEAR=2008
DGENRE=Jazz
TTITLE0=Somewhere In Between
TTITLE1=You Might Say
TTITLE2=Yellow Is The Color
TTITLE3=Hymn
TTITLE4=Feel Good - Live
TTITLE5=Skog - Chilluminati Remix
TTITLE6=Hope - Unreleased Version
TTITLE7=South
EXTD=YEAR: 2008
EXTT0=
EXTT1=
EXTT2=
EXTT3=
EXTT4=
EXTT5=
EXTT6=
EXTT7=
PLAYORDER=
